<?xml version="1.0" encoding="utf-8" standalone="no"?>
<!DOCTYPE svg PUBLIC "-//W3C//DTD SVG 1.1//EN"
  "http://www.w3.org/Graphics/SVG/1.1/DTD/svg11.dtd">
<svg xmlns:xlink="http://www.w3.org/1999/xlink" width="979.456942pt" height="547.454436pt" viewBox="0 0 979.456942 547.454436" xmlns="http://www.w3.org/2000/svg" version="1.1">
 <metadata>
  <rdf:RDF xmlns:dc="http://purl.org/dc/elements/1.1/" xmlns:cc="http://creativecommons.org/ns#" xmlns:rdf="http://www.w3.org/1999/02/22-rdf-syntax-ns#">
   <cc:Work>
    <dc:type rdf:resource="http://purl.org/dc/dcmitype/StillImage"/>
    <dc:date>2026-06-17T20:16:13.900365</dc:date>
    <dc:format>image/svg+xml</dc:format>
    <dc:creator>
     <cc:Agent>
      <dc:title>Matplotlib v3.10.8, https://matplotlib.org/</dc:title>
     </cc:Agent>
    </dc:creator>
   </cc:Work>
  </rdf:RDF>
 </metadata>
 <defs>
  <style type="text/css">*{stroke-linejoin: round; stroke-linecap: butt}</style>
 </defs>
 <g id="figure_1">
  <g id="patch_1">
   <path d="M 0 547.454436 
L 979.456942 547.454436 
L 979.456942 0 
L 0 0 
z
" style="fill: #ffffff"/>
  </g>
  <g id="axes_1">
   <g id="patch_2">
    <path d="M 86.1275 479.170686 
L 972.256942 479.170686 
L 972.256942 75.9852 
L 86.1275 75.9852 
z
" style="fill: #ffffff"/>
   </g>
   <g id="line2d_1">
    <path d="M 86.1275 110.064874 
L 972.256942 110.064874 
" clip-path="url(#pe535b38307)" style="fill: none; stroke-dasharray: 5.55,2.4; stroke-dashoffset: 0; stroke: #888888; stroke-opacity: 0.75; stroke-width: 1.5"/>
   </g>
   <g id="line2d_2">
    <path d="M 86.1275 162.73256 
L 972.256942 162.73256 
" clip-path="url(#pe535b38307)" style="fill: none; stroke-dasharray: 5.55,2.4; stroke-dashoffset: 0; stroke: #888888; stroke-opacity: 0.75; stroke-width: 1.5"/>
   </g>
   <g id="line2d_3">
    <path d="M 86.1275 252.768565 
L 972.256942 252.768565 
" clip-path="url(#pe535b38307)" style="fill: none; stroke-dasharray: 5.55,2.4; stroke-dashoffset: 0; stroke: #888888; stroke-opacity: 0.75; stroke-width: 1.5"/>
   </g>
   <g id="line2d_4">
    <path d="M 86.1275 342.804569 
L 972.256942 342.804569 
" clip-path="url(#pe535b38307)" style="fill: none; stroke-dasharray: 5.55,2.4; stroke-dashoffset: 0; stroke: #888888; stroke-opacity: 0.75; stroke-width: 1.5"/>
   </g>
   <g id="line2d_5">
    <path d="M 86.1275 461.825693 
L 972.256942 461.825693 
" clip-path="url(#pe535b38307)" style="fill: none; stroke-dasharray: 5.55,2.4; stroke-dashoffset: 0; stroke: #888888; stroke-opacity: 0.75; stroke-width: 1.5"/>
   </g>
   <g id="matplotlib.axis_1">
    <g id="xtick_1">
     <g id="line2d_6">
      <path d="M 121.693366 479.170686 
L 121.693366 75.9852 
" clip-path="url(#pe535b38307)" style="fill: none; stroke-dasharray: 4.44,1.92; stroke-dashoffset: 0; stroke: #b0b0b0; stroke-opacity: 0.55; stroke-width: 1.2"/>
     </g>
     <g id="line2d_7">
      <defs>
       <path id="md5dc6b7e5f" d="M 0 0 
L 0 7 
" style="stroke: #000000; stroke-width: 1.4"/>
      </defs>
      <g>
       <use xlink:href="#md5dc6b7e5f" x="121.693366" y="479.170686" style="stroke: #000000; stroke-width: 1.4"/>
      </g>
     </g>
     <g id="text_1">
      <!-- 256 -->
      <g transform="translate(102.605866 504.867561) scale(0.2 -0.2)">
       <defs>
        <path id="DejaVuSans-32" d="M 1228 531 
L 3431 531 
L 3431 0 
L 469 0 
L 469 531 
Q 828 903 1448 1529 
Q 2069 2156 2228 2338 
Q 2531 2678 2651 2914 
Q 2772 3150 2772 3378 
Q 2772 3750 2511 3984 
Q 2250 4219 1831 4219 
Q 1534 4219 1204 4116 
Q 875 4013 500 3803 
L 500 4441 
Q 881 4594 1212 4672 
Q 1544 4750 1819 4750 
Q 2544 4750 2975 4387 
Q 3406 4025 3406 3419 
Q 3406 3131 3298 2873 
Q 3191 2616 2906 2266 
Q 2828 2175 2409 1742 
Q 1991 1309 1228 531 
z
" transform="scale(0.015625)"/>
        <path id="DejaVuSans-35" d="M 691 4666 
L 3169 4666 
L 3169 4134 
L 1269 4134 
L 1269 2991 
Q 1406 3038 1543 3061 
Q 1681 3084 1819 3084 
Q 2600 3084 3056 2656 
Q 3513 2228 3513 1497 
Q 3513 744 3044 326 
Q 2575 -91 1722 -91 
Q 1428 -91 1123 -41 
Q 819 9 494 109 
L 494 744 
Q 775 591 1075 516 
Q 1375 441 1709 441 
Q 2250 441 2565 725 
Q 2881 1009 2881 1497 
Q 2881 1984 2565 2268 
Q 2250 2553 1709 2553 
Q 1456 2553 1204 2497 
Q 953 2441 691 2322 
L 691 4666 
z
" transform="scale(0.015625)"/>
        <path id="DejaVuSans-36" d="M 2113 2584 
Q 1688 2584 1439 2293 
Q 1191 2003 1191 1497 
Q 1191 994 1439 701 
Q 1688 409 2113 409 
Q 2538 409 2786 701 
Q 3034 994 3034 1497 
Q 3034 2003 2786 2293 
Q 2538 2584 2113 2584 
z
M 3366 4563 
L 3366 3988 
Q 3128 4100 2886 4159 
Q 2644 4219 2406 4219 
Q 1781 4219 1451 3797 
Q 1122 3375 1075 2522 
Q 1259 2794 1537 2939 
Q 1816 3084 2150 3084 
Q 2853 3084 3261 2657 
Q 3669 2231 3669 1497 
Q 3669 778 3244 343 
Q 2819 -91 2113 -91 
Q 1303 -91 875 529 
Q 447 1150 447 2328 
Q 447 3434 972 4092 
Q 1497 4750 2381 4750 
Q 2619 4750 2861 4703 
Q 3103 4656 3366 4563 
z
" transform="scale(0.015625)"/>
       </defs>
       <use xlink:href="#DejaVuSans-32"/>
       <use xlink:href="#DejaVuSans-35" transform="translate(63.623047 0)"/>
       <use xlink:href="#DejaVuSans-36" transform="translate(127.246094 0)"/>
      </g>
     </g>
    </g>
    <g id="xtick_2">
     <g id="line2d_8">
      <path d="M 284.361767 479.170686 
L 284.361767 75.9852 
" clip-path="url(#pe535b38307)" style="fill: none; stroke-dasharray: 4.44,1.92; stroke-dashoffset: 0; stroke: #b0b0b0; stroke-opacity: 0.55; stroke-width: 1.2"/>
     </g>
     <g id="line2d_9">
      <g>
       <use xlink:href="#md5dc6b7e5f" x="284.361767" y="479.170686" style="stroke: #000000; stroke-width: 1.4"/>
      </g>
     </g>
     <g id="text_2">
      <!-- 512 -->
      <g transform="translate(265.274267 504.867561) scale(0.2 -0.2)">
       <defs>
        <path id="DejaVuSans-31" d="M 794 531 
L 1825 531 
L 1825 4091 
L 703 3866 
L 703 4441 
L 1819 4666 
L 2450 4666 
L 2450 531 
L 3481 531 
L 3481 0 
L 794 0 
L 794 531 
z
" transform="scale(0.015625)"/>
       </defs>
       <use xlink:href="#DejaVuSans-35"/>
       <use xlink:href="#DejaVuSans-31" transform="translate(63.623047 0)"/>
       <use xlink:href="#DejaVuSans-32" transform="translate(127.246094 0)"/>
      </g>
     </g>
    </g>
    <g id="xtick_3">
     <g id="line2d_10">
      <path d="M 447.030168 479.170686 
L 447.030168 75.9852 
" clip-path="url(#pe535b38307)" style="fill: none; stroke-dasharray: 4.44,1.92; stroke-dashoffset: 0; stroke: #b0b0b0; stroke-opacity: 0.55; stroke-width: 1.2"/>
     </g>
     <g id="line2d_11">
      <g>
       <use xlink:href="#md5dc6b7e5f" x="447.030168" y="479.170686" style="stroke: #000000; stroke-width: 1.4"/>
      </g>
     </g>
     <g id="text_3">
      <!-- 1024 -->
      <g transform="translate(421.580168 504.867561) scale(0.2 -0.2)">
       <defs>
        <path id="DejaVuSans-30" d="M 2034 4250 
Q 1547 4250 1301 3770 
Q 1056 3291 1056 2328 
Q 1056 1369 1301 889 
Q 1547 409 2034 409 
Q 2525 409 2770 889 
Q 3016 1369 3016 2328 
Q 3016 3291 2770 3770 
Q 2525 4250 2034 4250 
z
M 2034 4750 
Q 2819 4750 3233 4129 
Q 3647 3509 3647 2328 
Q 3647 1150 3233 529 
Q 2819 -91 2034 -91 
Q 1250 -91 836 529 
Q 422 1150 422 2328 
Q 422 3509 836 4129 
Q 1250 4750 2034 4750 
z
" transform="scale(0.015625)"/>
        <path id="DejaVuSans-34" d="M 2419 4116 
L 825 1625 
L 2419 1625 
L 2419 4116 
z
M 2253 4666 
L 3047 4666 
L 3047 1625 
L 3713 1625 
L 3713 1100 
L 3047 1100 
L 3047 0 
L 2419 0 
L 2419 1100 
L 313 1100 
L 313 1709 
L 2253 4666 
z
" transform="scale(0.015625)"/>
       </defs>
       <use xlink:href="#DejaVuSans-31"/>
       <use xlink:href="#DejaVuSans-30" transform="translate(63.623047 0)"/>
       <use xlink:href="#DejaVuSans-32" transform="translate(127.246094 0)"/>
       <use xlink:href="#DejaVuSans-34" transform="translate(190.869141 0)"/>
      </g>
     </g>
    </g>
    <g id="xtick_4">
     <g id="line2d_12">
      <path d="M 609.698569 479.170686 
L 609.698569 75.9852 
" clip-path="url(#pe535b38307)" style="fill: none; stroke-dasharray: 4.44,1.92; stroke-dashoffset: 0; stroke: #b0b0b0; stroke-opacity: 0.55; stroke-width: 1.2"/>
     </g>
     <g id="line2d_13">
      <g>
       <use xlink:href="#md5dc6b7e5f" x="609.698569" y="479.170686" style="stroke: #000000; stroke-width: 1.4"/>
      </g>
     </g>
     <g id="text_4">
      <!-- 2048 -->
      <g transform="translate(584.248569 504.867561) scale(0.2 -0.2)">
       <defs>
        <path id="DejaVuSans-38" d="M 2034 2216 
Q 1584 2216 1326 1975 
Q 1069 1734 1069 1313 
Q 1069 891 1326 650 
Q 1584 409 2034 409 
Q 2484 409 2743 651 
Q 3003 894 3003 1313 
Q 3003 1734 2745 1975 
Q 2488 2216 2034 2216 
z
M 1403 2484 
Q 997 2584 770 2862 
Q 544 3141 544 3541 
Q 544 4100 942 4425 
Q 1341 4750 2034 4750 
Q 2731 4750 3128 4425 
Q 3525 4100 3525 3541 
Q 3525 3141 3298 2862 
Q 3072 2584 2669 2484 
Q 3125 2378 3379 2068 
Q 3634 1759 3634 1313 
Q 3634 634 3220 271 
Q 2806 -91 2034 -91 
Q 1263 -91 848 271 
Q 434 634 434 1313 
Q 434 1759 690 2068 
Q 947 2378 1403 2484 
z
M 1172 3481 
Q 1172 3119 1398 2916 
Q 1625 2713 2034 2713 
Q 2441 2713 2670 2916 
Q 2900 3119 2900 3481 
Q 2900 3844 2670 4047 
Q 2441 4250 2034 4250 
Q 1625 4250 1398 4047 
Q 1172 3844 1172 3481 
z
" transform="scale(0.015625)"/>
       </defs>
       <use xlink:href="#DejaVuSans-32"/>
       <use xlink:href="#DejaVuSans-30" transform="translate(63.623047 0)"/>
       <use xlink:href="#DejaVuSans-34" transform="translate(127.246094 0)"/>
       <use xlink:href="#DejaVuSans-38" transform="translate(190.869141 0)"/>
      </g>
     </g>
    </g>
    <g id="xtick_5">
     <g id="line2d_14">
      <path d="M 772.36697 479.170686 
L 772.36697 75.9852 
" clip-path="url(#pe535b38307)" style="fill: none; stroke-dasharray: 4.44,1.92; stroke-dashoffset: 0; stroke: #b0b0b0; stroke-opacity: 0.55; stroke-width: 1.2"/>
     </g>
     <g id="line2d_15">
      <g>
       <use xlink:href="#md5dc6b7e5f" x="772.36697" y="479.170686" style="stroke: #000000; stroke-width: 1.4"/>
      </g>
     </g>
     <g id="text_5">
      <!-- 4096 -->
      <g transform="translate(746.91697 504.867561) scale(0.2 -0.2)">
       <defs>
        <path id="DejaVuSans-39" d="M 703 97 
L 703 672 
Q 941 559 1184 500 
Q 1428 441 1663 441 
Q 2288 441 2617 861 
Q 2947 1281 2994 2138 
Q 2813 1869 2534 1725 
Q 2256 1581 1919 1581 
Q 1219 1581 811 2004 
Q 403 2428 403 3163 
Q 403 3881 828 4315 
Q 1253 4750 1959 4750 
Q 2769 4750 3195 4129 
Q 3622 3509 3622 2328 
Q 3622 1225 3098 567 
Q 2575 -91 1691 -91 
Q 1453 -91 1209 -44 
Q 966 3 703 97 
z
M 1959 2075 
Q 2384 2075 2632 2365 
Q 2881 2656 2881 3163 
Q 2881 3666 2632 3958 
Q 2384 4250 1959 4250 
Q 1534 4250 1286 3958 
Q 1038 3666 1038 3163 
Q 1038 2656 1286 2365 
Q 1534 2075 1959 2075 
z
" transform="scale(0.015625)"/>
       </defs>
       <use xlink:href="#DejaVuSans-34"/>
       <use xlink:href="#DejaVuSans-30" transform="translate(63.623047 0)"/>
       <use xlink:href="#DejaVuSans-39" transform="translate(127.246094 0)"/>
       <use xlink:href="#DejaVuSans-36" transform="translate(190.869141 0)"/>
      </g>
     </g>
    </g>
    <g id="xtick_6">
     <g id="line2d_16">
      <path d="M 935.035371 479.170686 
L 935.035371 75.9852 
" clip-path="url(#pe535b38307)" style="fill: none; stroke-dasharray: 4.44,1.92; stroke-dashoffset: 0; stroke: #b0b0b0; stroke-opacity: 0.55; stroke-width: 1.2"/>
     </g>
     <g id="line2d_17">
      <g>
       <use xlink:href="#md5dc6b7e5f" x="935.035371" y="479.170686" style="stroke: #000000; stroke-width: 1.4"/>
      </g>
     </g>
     <g id="text_6">
      <!-- 8192 -->
      <g transform="translate(909.585371 504.867561) scale(0.2 -0.2)">
       <use xlink:href="#DejaVuSans-38"/>
       <use xlink:href="#DejaVuSans-31" transform="translate(63.623047 0)"/>
       <use xlink:href="#DejaVuSans-39" transform="translate(127.246094 0)"/>
       <use xlink:href="#DejaVuSans-32" transform="translate(190.869141 0)"/>
      </g>
     </g>
    </g>
    <g id="text_7">
     <!-- #gpu (log2 scale) -->
     <g transform="translate(422.454096 535.263186) scale(0.24 -0.24)">
      <defs>
       <path id="DejaVuSans-23" d="M 3272 2816 
L 2363 2816 
L 2100 1772 
L 3016 1772 
L 3272 2816 
z
M 2803 4594 
L 2478 3297 
L 3391 3297 
L 3719 4594 
L 4219 4594 
L 3897 3297 
L 4872 3297 
L 4872 2816 
L 3775 2816 
L 3519 1772 
L 4513 1772 
L 4513 1294 
L 3397 1294 
L 3072 0 
L 2572 0 
L 2894 1294 
L 1978 1294 
L 1656 0 
L 1153 0 
L 1478 1294 
L 494 1294 
L 494 1772 
L 1594 1772 
L 1856 2816 
L 850 2816 
L 850 3297 
L 1978 3297 
L 2297 4594 
L 2803 4594 
z
" transform="scale(0.015625)"/>
       <path id="DejaVuSans-67" d="M 2906 1791 
Q 2906 2416 2648 2759 
Q 2391 3103 1925 3103 
Q 1463 3103 1205 2759 
Q 947 2416 947 1791 
Q 947 1169 1205 825 
Q 1463 481 1925 481 
Q 2391 481 2648 825 
Q 2906 1169 2906 1791 
z
M 3481 434 
Q 3481 -459 3084 -895 
Q 2688 -1331 1869 -1331 
Q 1566 -1331 1297 -1286 
Q 1028 -1241 775 -1147 
L 775 -588 
Q 1028 -725 1275 -790 
Q 1522 -856 1778 -856 
Q 2344 -856 2625 -561 
Q 2906 -266 2906 331 
L 2906 616 
Q 2728 306 2450 153 
Q 2172 0 1784 0 
Q 1141 0 747 490 
Q 353 981 353 1791 
Q 353 2603 747 3093 
Q 1141 3584 1784 3584 
Q 2172 3584 2450 3431 
Q 2728 3278 2906 2969 
L 2906 3500 
L 3481 3500 
L 3481 434 
z
" transform="scale(0.015625)"/>
       <path id="DejaVuSans-70" d="M 1159 525 
L 1159 -1331 
L 581 -1331 
L 581 3500 
L 1159 3500 
L 1159 2969 
Q 1341 3281 1617 3432 
Q 1894 3584 2278 3584 
Q 2916 3584 3314 3078 
Q 3713 2572 3713 1747 
Q 3713 922 3314 415 
Q 2916 -91 2278 -91 
Q 1894 -91 1617 61 
Q 1341 213 1159 525 
z
M 3116 1747 
Q 3116 2381 2855 2742 
Q 2594 3103 2138 3103 
Q 1681 3103 1420 2742 
Q 1159 2381 1159 1747 
Q 1159 1113 1420 752 
Q 1681 391 2138 391 
Q 2594 391 2855 752 
Q 3116 1113 3116 1747 
z
" transform="scale(0.015625)"/>
       <path id="DejaVuSans-75" d="M 544 1381 
L 544 3500 
L 1119 3500 
L 1119 1403 
Q 1119 906 1312 657 
Q 1506 409 1894 409 
Q 2359 409 2629 706 
Q 2900 1003 2900 1516 
L 2900 3500 
L 3475 3500 
L 3475 0 
L 2900 0 
L 2900 538 
Q 2691 219 2414 64 
Q 2138 -91 1772 -91 
Q 1169 -91 856 284 
Q 544 659 544 1381 
z
M 1991 3584 
L 1991 3584 
z
" transform="scale(0.015625)"/>
       <path id="DejaVuSans-20" transform="scale(0.015625)"/>
       <path id="DejaVuSans-28" d="M 1984 4856 
Q 1566 4138 1362 3434 
Q 1159 2731 1159 2009 
Q 1159 1288 1364 580 
Q 1569 -128 1984 -844 
L 1484 -844 
Q 1016 -109 783 600 
Q 550 1309 550 2009 
Q 550 2706 781 3412 
Q 1013 4119 1484 4856 
L 1984 4856 
z
" transform="scale(0.015625)"/>
       <path id="DejaVuSans-6c" d="M 603 4863 
L 1178 4863 
L 1178 0 
L 603 0 
L 603 4863 
z
" transform="scale(0.015625)"/>
       <path id="DejaVuSans-6f" d="M 1959 3097 
Q 1497 3097 1228 2736 
Q 959 2375 959 1747 
Q 959 1119 1226 758 
Q 1494 397 1959 397 
Q 2419 397 2687 759 
Q 2956 1122 2956 1747 
Q 2956 2369 2687 2733 
Q 2419 3097 1959 3097 
z
M 1959 3584 
Q 2709 3584 3137 3096 
Q 3566 2609 3566 1747 
Q 3566 888 3137 398 
Q 2709 -91 1959 -91 
Q 1206 -91 779 398 
Q 353 888 353 1747 
Q 353 2609 779 3096 
Q 1206 3584 1959 3584 
z
" transform="scale(0.015625)"/>
       <path id="DejaVuSans-73" d="M 2834 3397 
L 2834 2853 
Q 2591 2978 2328 3040 
Q 2066 3103 1784 3103 
Q 1356 3103 1142 2972 
Q 928 2841 928 2578 
Q 928 2378 1081 2264 
Q 1234 2150 1697 2047 
L 1894 2003 
Q 2506 1872 2764 1633 
Q 3022 1394 3022 966 
Q 3022 478 2636 193 
Q 2250 -91 1575 -91 
Q 1294 -91 989 -36 
Q 684 19 347 128 
L 347 722 
Q 666 556 975 473 
Q 1284 391 1588 391 
Q 1994 391 2212 530 
Q 2431 669 2431 922 
Q 2431 1156 2273 1281 
Q 2116 1406 1581 1522 
L 1381 1569 
Q 847 1681 609 1914 
Q 372 2147 372 2553 
Q 372 3047 722 3315 
Q 1072 3584 1716 3584 
Q 2034 3584 2315 3537 
Q 2597 3491 2834 3397 
z
" transform="scale(0.015625)"/>
       <path id="DejaVuSans-63" d="M 3122 3366 
L 3122 2828 
Q 2878 2963 2633 3030 
Q 2388 3097 2138 3097 
Q 1578 3097 1268 2742 
Q 959 2388 959 1747 
Q 959 1106 1268 751 
Q 1578 397 2138 397 
Q 2388 397 2633 464 
Q 2878 531 3122 666 
L 3122 134 
Q 2881 22 2623 -34 
Q 2366 -91 2075 -91 
Q 1284 -91 818 406 
Q 353 903 353 1747 
Q 353 2603 823 3093 
Q 1294 3584 2113 3584 
Q 2378 3584 2631 3529 
Q 2884 3475 3122 3366 
z
" transform="scale(0.015625)"/>
       <path id="DejaVuSans-61" d="M 2194 1759 
Q 1497 1759 1228 1600 
Q 959 1441 959 1056 
Q 959 750 1161 570 
Q 1363 391 1709 391 
Q 2188 391 2477 730 
Q 2766 1069 2766 1631 
L 2766 1759 
L 2194 1759 
z
M 3341 1997 
L 3341 0 
L 2766 0 
L 2766 531 
Q 2569 213 2275 61 
Q 1981 -91 1556 -91 
Q 1019 -91 701 211 
Q 384 513 384 1019 
Q 384 1609 779 1909 
Q 1175 2209 1959 2209 
L 2766 2209 
L 2766 2266 
Q 2766 2663 2505 2880 
Q 2244 3097 1772 3097 
Q 1472 3097 1187 3025 
Q 903 2953 641 2809 
L 641 3341 
Q 956 3463 1253 3523 
Q 1550 3584 1831 3584 
Q 2591 3584 2966 3190 
Q 3341 2797 3341 1997 
z
" transform="scale(0.015625)"/>
       <path id="DejaVuSans-65" d="M 3597 1894 
L 3597 1613 
L 953 1613 
Q 991 1019 1311 708 
Q 1631 397 2203 397 
Q 2534 397 2845 478 
Q 3156 559 3463 722 
L 3463 178 
Q 3153 47 2828 -22 
Q 2503 -91 2169 -91 
Q 1331 -91 842 396 
Q 353 884 353 1716 
Q 353 2575 817 3079 
Q 1281 3584 2069 3584 
Q 2775 3584 3186 3129 
Q 3597 2675 3597 1894 
z
M 3022 2063 
Q 3016 2534 2758 2815 
Q 2500 3097 2075 3097 
Q 1594 3097 1305 2825 
Q 1016 2553 972 2059 
L 3022 2063 
z
" transform="scale(0.015625)"/>
       <path id="DejaVuSans-29" d="M 513 4856 
L 1013 4856 
Q 1481 4119 1714 3412 
Q 1947 2706 1947 2009 
Q 1947 1309 1714 600 
Q 1481 -109 1013 -844 
L 513 -844 
Q 928 -128 1133 580 
Q 1338 1288 1338 2009 
Q 1338 2731 1133 3434 
Q 928 4138 513 4856 
z
" transform="scale(0.015625)"/>
      </defs>
      <use xlink:href="#DejaVuSans-23"/>
      <use xlink:href="#DejaVuSans-67" transform="translate(83.789062 0)"/>
      <use xlink:href="#DejaVuSans-70" transform="translate(147.265625 0)"/>
      <use xlink:href="#DejaVuSans-75" transform="translate(210.742188 0)"/>
      <use xlink:href="#DejaVuSans-20" transform="translate(274.121094 0)"/>
      <use xlink:href="#DejaVuSans-28" transform="translate(305.908203 0)"/>
      <use xlink:href="#DejaVuSans-6c" transform="translate(344.921875 0)"/>
      <use xlink:href="#DejaVuSans-6f" transform="translate(372.705078 0)"/>
      <use xlink:href="#DejaVuSans-67" transform="translate(433.886719 0)"/>
      <use xlink:href="#DejaVuSans-32" transform="translate(497.363281 0)"/>
      <use xlink:href="#DejaVuSans-20" transform="translate(560.986328 0)"/>
      <use xlink:href="#DejaVuSans-73" transform="translate(592.773438 0)"/>
      <use xlink:href="#DejaVuSans-63" transform="translate(644.873047 0)"/>
      <use xlink:href="#DejaVuSans-61" transform="translate(699.853516 0)"/>
      <use xlink:href="#DejaVuSans-6c" transform="translate(761.132812 0)"/>
      <use xlink:href="#DejaVuSans-65" transform="translate(788.916016 0)"/>
      <use xlink:href="#DejaVuSans-29" transform="translate(850.439453 0)"/>
     </g>
    </g>
   </g>
   <g id="matplotlib.axis_2">
    <g id="ytick_1">
     <g id="line2d_18">
      <defs>
       <path id="mae6bde1aaf" d="M 0 0 
L -7 0 
" style="stroke: #000000; stroke-width: 1.4"/>
      </defs>
      <g>
       <use xlink:href="#mae6bde1aaf" x="86.1275" y="252.768565" style="stroke: #000000; stroke-width: 1.4"/>
      </g>
     </g>
     <g id="text_8">
      <!-- $\mathdefault{10^{1}}$ -->
      <g transform="translate(40.4275 260.367002) scale(0.2 -0.2)">
       <use xlink:href="#DejaVuSans-31" transform="translate(0 0.684375)"/>
       <use xlink:href="#DejaVuSans-30" transform="translate(63.623047 0.684375)"/>
       <use xlink:href="#DejaVuSans-31" transform="translate(128.203125 38.965625) scale(0.7)"/>
      </g>
     </g>
    </g>
    <g id="ytick_2">
     <g id="line2d_19">
      <defs>
       <path id="m6f9dacf11c" d="M 0 0 
L -4 0 
" style="stroke: #000000"/>
      </defs>
      <g>
       <use xlink:href="#m6f9dacf11c" x="86.1275" y="461.825693" style="stroke: #000000"/>
      </g>
     </g>
    </g>
    <g id="ytick_3">
     <g id="line2d_20">
      <g>
       <use xlink:href="#m6f9dacf11c" x="86.1275" y="409.158006" style="stroke: #000000"/>
      </g>
     </g>
    </g>
    <g id="ytick_4">
     <g id="line2d_21">
      <g>
       <use xlink:href="#m6f9dacf11c" x="86.1275" y="371.789688" style="stroke: #000000"/>
      </g>
     </g>
    </g>
    <g id="ytick_5">
     <g id="line2d_22">
      <g>
       <use xlink:href="#m6f9dacf11c" x="86.1275" y="342.804569" style="stroke: #000000"/>
      </g>
     </g>
    </g>
    <g id="ytick_6">
     <g id="line2d_23">
      <g>
       <use xlink:href="#m6f9dacf11c" x="86.1275" y="319.122002" style="stroke: #000000"/>
      </g>
     </g>
    </g>
    <g id="ytick_7">
     <g id="line2d_24">
      <g>
       <use xlink:href="#m6f9dacf11c" x="86.1275" y="299.098677" style="stroke: #000000"/>
      </g>
     </g>
    </g>
    <g id="ytick_8">
     <g id="line2d_25">
      <g>
       <use xlink:href="#m6f9dacf11c" x="86.1275" y="281.753684" style="stroke: #000000"/>
      </g>
     </g>
    </g>
    <g id="ytick_9">
     <g id="line2d_26">
      <g>
       <use xlink:href="#m6f9dacf11c" x="86.1275" y="266.454316" style="stroke: #000000"/>
      </g>
     </g>
    </g>
    <g id="ytick_10">
     <g id="line2d_27">
      <g>
       <use xlink:href="#m6f9dacf11c" x="86.1275" y="162.73256" style="stroke: #000000"/>
      </g>
     </g>
    </g>
    <g id="ytick_11">
     <g id="line2d_28">
      <g>
       <use xlink:href="#m6f9dacf11c" x="86.1275" y="110.064874" style="stroke: #000000"/>
      </g>
     </g>
    </g>
    <g id="text_9">
     <!-- Time-to-train (mins, log scale) -->
     <g transform="translate(25.43625 458.511693) rotate(-90) scale(0.24 -0.24)">
      <defs>
       <path id="DejaVuSans-54" d="M -19 4666 
L 3928 4666 
L 3928 4134 
L 2272 4134 
L 2272 0 
L 1638 0 
L 1638 4134 
L -19 4134 
L -19 4666 
z
" transform="scale(0.015625)"/>
       <path id="DejaVuSans-69" d="M 603 3500 
L 1178 3500 
L 1178 0 
L 603 0 
L 603 3500 
z
M 603 4863 
L 1178 4863 
L 1178 4134 
L 603 4134 
L 603 4863 
z
" transform="scale(0.015625)"/>
       <path id="DejaVuSans-6d" d="M 3328 2828 
Q 3544 3216 3844 3400 
Q 4144 3584 4550 3584 
Q 5097 3584 5394 3201 
Q 5691 2819 5691 2113 
L 5691 0 
L 5113 0 
L 5113 2094 
Q 5113 2597 4934 2840 
Q 4756 3084 4391 3084 
Q 3944 3084 3684 2787 
Q 3425 2491 3425 1978 
L 3425 0 
L 2847 0 
L 2847 2094 
Q 2847 2600 2669 2842 
Q 2491 3084 2119 3084 
Q 1678 3084 1418 2786 
Q 1159 2488 1159 1978 
L 1159 0 
L 581 0 
L 581 3500 
L 1159 3500 
L 1159 2956 
Q 1356 3278 1631 3431 
Q 1906 3584 2284 3584 
Q 2666 3584 2933 3390 
Q 3200 3197 3328 2828 
z
" transform="scale(0.015625)"/>
       <path id="DejaVuSans-2d" d="M 313 2009 
L 1997 2009 
L 1997 1497 
L 313 1497 
L 313 2009 
z
" transform="scale(0.015625)"/>
       <path id="DejaVuSans-74" d="M 1172 4494 
L 1172 3500 
L 2356 3500 
L 2356 3053 
L 1172 3053 
L 1172 1153 
Q 1172 725 1289 603 
Q 1406 481 1766 481 
L 2356 481 
L 2356 0 
L 1766 0 
Q 1100 0 847 248 
Q 594 497 594 1153 
L 594 3053 
L 172 3053 
L 172 3500 
L 594 3500 
L 594 4494 
L 1172 4494 
z
" transform="scale(0.015625)"/>
       <path id="DejaVuSans-72" d="M 2631 2963 
Q 2534 3019 2420 3045 
Q 2306 3072 2169 3072 
Q 1681 3072 1420 2755 
Q 1159 2438 1159 1844 
L 1159 0 
L 581 0 
L 581 3500 
L 1159 3500 
L 1159 2956 
Q 1341 3275 1631 3429 
Q 1922 3584 2338 3584 
Q 2397 3584 2469 3576 
Q 2541 3569 2628 3553 
L 2631 2963 
z
" transform="scale(0.015625)"/>
       <path id="DejaVuSans-6e" d="M 3513 2113 
L 3513 0 
L 2938 0 
L 2938 2094 
Q 2938 2591 2744 2837 
Q 2550 3084 2163 3084 
Q 1697 3084 1428 2787 
Q 1159 2491 1159 1978 
L 1159 0 
L 581 0 
L 581 3500 
L 1159 3500 
L 1159 2956 
Q 1366 3272 1645 3428 
Q 1925 3584 2291 3584 
Q 2894 3584 3203 3211 
Q 3513 2838 3513 2113 
z
" transform="scale(0.015625)"/>
       <path id="DejaVuSans-2c" d="M 750 794 
L 1409 794 
L 1409 256 
L 897 -744 
L 494 -744 
L 750 256 
L 750 794 
z
" transform="scale(0.015625)"/>
      </defs>
      <use xlink:href="#DejaVuSans-54"/>
      <use xlink:href="#DejaVuSans-69" transform="translate(57.958984 0)"/>
      <use xlink:href="#DejaVuSans-6d" transform="translate(85.742188 0)"/>
      <use xlink:href="#DejaVuSans-65" transform="translate(183.154297 0)"/>
      <use xlink:href="#DejaVuSans-2d" transform="translate(244.677734 0)"/>
      <use xlink:href="#DejaVuSans-74" transform="translate(280.761719 0)"/>
      <use xlink:href="#DejaVuSans-6f" transform="translate(319.970703 0)"/>
      <use xlink:href="#DejaVuSans-2d" transform="translate(383.027344 0)"/>
      <use xlink:href="#DejaVuSans-74" transform="translate(419.111328 0)"/>
      <use xlink:href="#DejaVuSans-72" transform="translate(458.320312 0)"/>
      <use xlink:href="#DejaVuSans-61" transform="translate(499.433594 0)"/>
      <use xlink:href="#DejaVuSans-69" transform="translate(560.712891 0)"/>
      <use xlink:href="#DejaVuSans-6e" transform="translate(588.496094 0)"/>
      <use xlink:href="#DejaVuSans-20" transform="translate(651.875 0)"/>
      <use xlink:href="#DejaVuSans-28" transform="translate(683.662109 0)"/>
      <use xlink:href="#DejaVuSans-6d" transform="translate(722.675781 0)"/>
      <use xlink:href="#DejaVuSans-69" transform="translate(820.087891 0)"/>
      <use xlink:href="#DejaVuSans-6e" transform="translate(847.871094 0)"/>
      <use xlink:href="#DejaVuSans-73" transform="translate(911.25 0)"/>
      <use xlink:href="#DejaVuSans-2c" transform="translate(963.349609 0)"/>
      <use xlink:href="#DejaVuSans-20" transform="translate(995.136719 0)"/>
      <use xlink:href="#DejaVuSans-6c" transform="translate(1026.923828 0)"/>
      <use xlink:href="#DejaVuSans-6f" transform="translate(1054.707031 0)"/>
      <use xlink:href="#DejaVuSans-67" transform="translate(1115.888672 0)"/>
      <use xlink:href="#DejaVuSans-20" transform="translate(1179.365234 0)"/>
      <use xlink:href="#DejaVuSans-73" transform="translate(1211.152344 0)"/>
      <use xlink:href="#DejaVuSans-63" transform="translate(1263.251953 0)"/>
      <use xlink:href="#DejaVuSans-61" transform="translate(1318.232422 0)"/>
      <use xlink:href="#DejaVuSans-6c" transform="translate(1379.511719 0)"/>
      <use xlink:href="#DejaVuSans-65" transform="translate(1407.294922 0)"/>
      <use xlink:href="#DejaVuSans-29" transform="translate(1468.818359 0)"/>
     </g>
    </g>
   </g>
   <g id="line2d_29">
    <path d="M 284.361767 130.31068 
L 935.035371 408.752613 
L 935.035371 408.752613 
" clip-path="url(#pe535b38307)" style="fill: none; stroke-dasharray: 2.6,4.29; stroke-dashoffset: 0; stroke: #e69500; stroke-opacity: 0.72; stroke-width: 2.6"/>
   </g>
   <g id="line2d_30">
    <path d="M 121.693366 102.726441 
L 935.035371 471.047468 
L 935.035371 471.047468 
" clip-path="url(#pe535b38307)" style="fill: none; stroke-dasharray: 2.6,4.29; stroke-dashoffset: 0; stroke: #4a9f8a; stroke-opacity: 0.78; stroke-width: 2.6"/>
   </g>
   <g id="patch_3">
    <path d="M 86.1275 479.170686 
L 86.1275 75.9852 
" style="fill: none; stroke: #333333; stroke-width: 1.6; stroke-linejoin: miter; stroke-linecap: square"/>
   </g>
   <g id="patch_4">
    <path d="M 86.1275 479.170686 
L 972.256942 479.170686 
" style="fill: none; stroke: #333333; stroke-width: 1.6; stroke-linejoin: miter; stroke-linecap: square"/>
   </g>
   <g id="line2d_31">
    <path d="M 284.361767 120.848632 
L 609.698569 284.377905 
L 772.36697 347.297807 
L 935.035371 395.212726 
" clip-path="url(#pe535b38307)" style="fill: none; stroke: #e69500; stroke-width: 3; stroke-linecap: square"/>
    <defs>
     <path id="mc3493aade2" d="M 0 5 
C 1.326016 5 2.597899 4.473168 3.535534 3.535534 
C 4.473168 2.597899 5 1.326016 5 0 
C 5 -1.326016 4.473168 -2.597899 3.535534 -3.535534 
C 2.597899 -4.473168 1.326016 -5 0 -5 
C -1.326016 -5 -2.597899 -4.473168 -3.535534 -3.535534 
C -4.473168 -2.597899 -5 -1.326016 -5 0 
C -5 1.326016 -4.473168 2.597899 -3.535534 3.535534 
C -2.597899 4.473168 -1.326016 5 0 5 
z
"/>
    </defs>
    <g clip-path="url(#pe535b38307)">
     <use xlink:href="#mc3493aade2" x="284.361767" y="120.848632" style="fill: #e69500"/>
     <use xlink:href="#mc3493aade2" x="609.698569" y="284.377905" style="fill: #e69500"/>
     <use xlink:href="#mc3493aade2" x="772.36697" y="347.297807" style="fill: #e69500"/>
     <use xlink:href="#mc3493aade2" x="935.035371" y="395.212726" style="fill: #e69500"/>
    </g>
   </g>
   <g id="line2d_32">
    <path d="M 609.698569 329.483033 
L 772.36697 405.318481 
L 935.035371 460.533199 
" clip-path="url(#pe535b38307)" style="fill: none; stroke: #4aade8; stroke-width: 3; stroke-linecap: square"/>
    <defs>
     <path id="mf780e5277c" d="M -5 5 
L 5 5 
L 5 -5 
L -5 -5 
z
"/>
    </defs>
    <g clip-path="url(#pe535b38307)">
     <use xlink:href="#mf780e5277c" x="609.698569" y="329.483033" style="fill: #4aade8"/>
     <use xlink:href="#mf780e5277c" x="772.36697" y="405.318481" style="fill: #4aade8"/>
     <use xlink:href="#mf780e5277c" x="935.035371" y="460.533199" style="fill: #4aade8"/>
    </g>
   </g>
   <g id="line2d_33">
    <path d="M 121.693366 96.002974 
L 284.361767 179.929187 
" clip-path="url(#pe535b38307)" style="fill: none; stroke: #009e73; stroke-width: 3; stroke-linecap: square"/>
    <defs>
     <path id="m58ee2be1d5" d="M 0 -5 
L -5 5 
L 5 5 
z
"/>
    </defs>
    <g clip-path="url(#pe535b38307)">
     <use xlink:href="#m58ee2be1d5" x="121.693366" y="96.002974" style="fill: #009e73"/>
     <use xlink:href="#m58ee2be1d5" x="284.361767" y="179.929187" style="fill: #009e73"/>
    </g>
   </g>
   <g id="text_10">
    <!-- 30 -->
    <g style="fill: #555555" transform="translate(944.921294 106.321437) scale(0.18 -0.18)">
     <defs>
      <path id="DejaVuSans-33" d="M 2597 2516 
Q 3050 2419 3304 2112 
Q 3559 1806 3559 1356 
Q 3559 666 3084 287 
Q 2609 -91 1734 -91 
Q 1441 -91 1130 -33 
Q 819 25 488 141 
L 488 750 
Q 750 597 1062 519 
Q 1375 441 1716 441 
Q 2309 441 2620 675 
Q 2931 909 2931 1356 
Q 2931 1769 2642 2001 
Q 2353 2234 1838 2234 
L 1294 2234 
L 1294 2753 
L 1863 2753 
Q 2328 2753 2575 2939 
Q 2822 3125 2822 3475 
Q 2822 3834 2567 4026 
Q 2313 4219 1838 4219 
Q 1578 4219 1281 4162 
Q 984 4106 628 3988 
L 628 4550 
Q 988 4650 1302 4700 
Q 1616 4750 1894 4750 
Q 2613 4750 3031 4423 
Q 3450 4097 3450 3541 
Q 3450 3153 3228 2886 
Q 3006 2619 2597 2516 
z
" transform="scale(0.015625)"/>
     </defs>
     <use xlink:href="#DejaVuSans-33"/>
     <use xlink:href="#DejaVuSans-30" transform="translate(63.623047 0)"/>
    </g>
   </g>
   <g id="text_11">
    <!-- 20 -->
    <g style="fill: #555555" transform="translate(944.921294 158.989123) scale(0.18 -0.18)">
     <use xlink:href="#DejaVuSans-32"/>
     <use xlink:href="#DejaVuSans-30" transform="translate(63.623047 0)"/>
    </g>
   </g>
   <g id="text_12">
    <!-- 10 -->
    <g style="fill: #555555" transform="translate(944.921294 249.025127) scale(0.18 -0.18)">
     <use xlink:href="#DejaVuSans-31"/>
     <use xlink:href="#DejaVuSans-30" transform="translate(63.623047 0)"/>
    </g>
   </g>
   <g id="text_13">
    <!-- 5 -->
    <g style="fill: #555555" transform="translate(956.373794 339.061131) scale(0.18 -0.18)">
     <use xlink:href="#DejaVuSans-35"/>
    </g>
   </g>
   <g id="text_14">
    <!-- 2 -->
    <g style="fill: #555555" transform="translate(956.373794 458.082255) scale(0.18 -0.18)">
     <use xlink:href="#DejaVuSans-32"/>
    </g>
   </g>
   <g id="legend_1">
    <g id="patch_5">
     <path d="M 98.7275 470.170686 
L 449.803437 470.170686 
Q 453.403437 470.170686 453.403437 466.570686 
L 453.403437 390.908811 
Q 453.403437 387.308811 449.803437 387.308811 
L 98.7275 387.308811 
Q 95.1275 387.308811 95.1275 390.908811 
L 95.1275 466.570686 
Q 95.1275 470.170686 98.7275 470.170686 
z
" style="fill: #ffffff; opacity: 0.88; stroke: #cccccc; stroke-width: 1.5; stroke-linejoin: miter"/>
    </g>
    <g id="line2d_34">
     <path d="M 102.3275 401.885998 
L 118.5275 401.885998 
L 134.7275 401.885998 
" style="fill: none; stroke: #e69500; stroke-width: 3; stroke-linecap: square"/>
     <g>
      <use xlink:href="#mc3493aade2" x="118.5275" y="401.885998" style="fill: #e69500"/>
     </g>
    </g>
    <g id="text_15">
     <!-- GB200 NVL72 (Nvidia Tyche-hsg) -->
     <g transform="translate(149.1275 408.185998) scale(0.18 -0.18)">
      <defs>
       <path id="DejaVuSans-47" d="M 3809 666 
L 3809 1919 
L 2778 1919 
L 2778 2438 
L 4434 2438 
L 4434 434 
Q 4069 175 3628 42 
Q 3188 -91 2688 -91 
Q 1594 -91 976 548 
Q 359 1188 359 2328 
Q 359 3472 976 4111 
Q 1594 4750 2688 4750 
Q 3144 4750 3555 4637 
Q 3966 4525 4313 4306 
L 4313 3634 
Q 3963 3931 3569 4081 
Q 3175 4231 2741 4231 
Q 1884 4231 1454 3753 
Q 1025 3275 1025 2328 
Q 1025 1384 1454 906 
Q 1884 428 2741 428 
Q 3075 428 3337 486 
Q 3600 544 3809 666 
z
" transform="scale(0.015625)"/>
       <path id="DejaVuSans-42" d="M 1259 2228 
L 1259 519 
L 2272 519 
Q 2781 519 3026 730 
Q 3272 941 3272 1375 
Q 3272 1813 3026 2020 
Q 2781 2228 2272 2228 
L 1259 2228 
z
M 1259 4147 
L 1259 2741 
L 2194 2741 
Q 2656 2741 2882 2914 
Q 3109 3088 3109 3444 
Q 3109 3797 2882 3972 
Q 2656 4147 2194 4147 
L 1259 4147 
z
M 628 4666 
L 2241 4666 
Q 2963 4666 3353 4366 
Q 3744 4066 3744 3513 
Q 3744 3084 3544 2831 
Q 3344 2578 2956 2516 
Q 3422 2416 3680 2098 
Q 3938 1781 3938 1306 
Q 3938 681 3513 340 
Q 3088 0 2303 0 
L 628 0 
L 628 4666 
z
" transform="scale(0.015625)"/>
       <path id="DejaVuSans-4e" d="M 628 4666 
L 1478 4666 
L 3547 763 
L 3547 4666 
L 4159 4666 
L 4159 0 
L 3309 0 
L 1241 3903 
L 1241 0 
L 628 0 
L 628 4666 
z
" transform="scale(0.015625)"/>
       <path id="DejaVuSans-56" d="M 1831 0 
L 50 4666 
L 709 4666 
L 2188 738 
L 3669 4666 
L 4325 4666 
L 2547 0 
L 1831 0 
z
" transform="scale(0.015625)"/>
       <path id="DejaVuSans-4c" d="M 628 4666 
L 1259 4666 
L 1259 531 
L 3531 531 
L 3531 0 
L 628 0 
L 628 4666 
z
" transform="scale(0.015625)"/>
       <path id="DejaVuSans-37" d="M 525 4666 
L 3525 4666 
L 3525 4397 
L 1831 0 
L 1172 0 
L 2766 4134 
L 525 4134 
L 525 4666 
z
" transform="scale(0.015625)"/>
       <path id="DejaVuSans-76" d="M 191 3500 
L 800 3500 
L 1894 563 
L 2988 3500 
L 3597 3500 
L 2284 0 
L 1503 0 
L 191 3500 
z
" transform="scale(0.015625)"/>
       <path id="DejaVuSans-64" d="M 2906 2969 
L 2906 4863 
L 3481 4863 
L 3481 0 
L 2906 0 
L 2906 525 
Q 2725 213 2448 61 
Q 2172 -91 1784 -91 
Q 1150 -91 751 415 
Q 353 922 353 1747 
Q 353 2572 751 3078 
Q 1150 3584 1784 3584 
Q 2172 3584 2448 3432 
Q 2725 3281 2906 2969 
z
M 947 1747 
Q 947 1113 1208 752 
Q 1469 391 1925 391 
Q 2381 391 2643 752 
Q 2906 1113 2906 1747 
Q 2906 2381 2643 2742 
Q 2381 3103 1925 3103 
Q 1469 3103 1208 2742 
Q 947 2381 947 1747 
z
" transform="scale(0.015625)"/>
       <path id="DejaVuSans-79" d="M 2059 -325 
Q 1816 -950 1584 -1140 
Q 1353 -1331 966 -1331 
L 506 -1331 
L 506 -850 
L 844 -850 
Q 1081 -850 1212 -737 
Q 1344 -625 1503 -206 
L 1606 56 
L 191 3500 
L 800 3500 
L 1894 763 
L 2988 3500 
L 3597 3500 
L 2059 -325 
z
" transform="scale(0.015625)"/>
       <path id="DejaVuSans-68" d="M 3513 2113 
L 3513 0 
L 2938 0 
L 2938 2094 
Q 2938 2591 2744 2837 
Q 2550 3084 2163 3084 
Q 1697 3084 1428 2787 
Q 1159 2491 1159 1978 
L 1159 0 
L 581 0 
L 581 4863 
L 1159 4863 
L 1159 2956 
Q 1366 3272 1645 3428 
Q 1925 3584 2291 3584 
Q 2894 3584 3203 3211 
Q 3513 2838 3513 2113 
z
" transform="scale(0.015625)"/>
      </defs>
      <use xlink:href="#DejaVuSans-47"/>
      <use xlink:href="#DejaVuSans-42" transform="translate(77.490234 0)"/>
      <use xlink:href="#DejaVuSans-32" transform="translate(146.09375 0)"/>
      <use xlink:href="#DejaVuSans-30" transform="translate(209.716797 0)"/>
      <use xlink:href="#DejaVuSans-30" transform="translate(273.339844 0)"/>
      <use xlink:href="#DejaVuSans-20" transform="translate(336.962891 0)"/>
      <use xlink:href="#DejaVuSans-4e" transform="translate(368.75 0)"/>
      <use xlink:href="#DejaVuSans-56" transform="translate(443.554688 0)"/>
      <use xlink:href="#DejaVuSans-4c" transform="translate(511.962891 0)"/>
      <use xlink:href="#DejaVuSans-37" transform="translate(567.675781 0)"/>
      <use xlink:href="#DejaVuSans-32" transform="translate(631.298828 0)"/>
      <use xlink:href="#DejaVuSans-20" transform="translate(694.921875 0)"/>
      <use xlink:href="#DejaVuSans-28" transform="translate(726.708984 0)"/>
      <use xlink:href="#DejaVuSans-4e" transform="translate(765.722656 0)"/>
      <use xlink:href="#DejaVuSans-76" transform="translate(840.527344 0)"/>
      <use xlink:href="#DejaVuSans-69" transform="translate(899.707031 0)"/>
      <use xlink:href="#DejaVuSans-64" transform="translate(927.490234 0)"/>
      <use xlink:href="#DejaVuSans-69" transform="translate(990.966797 0)"/>
      <use xlink:href="#DejaVuSans-61" transform="translate(1018.75 0)"/>
      <use xlink:href="#DejaVuSans-20" transform="translate(1080.029297 0)"/>
      <use xlink:href="#DejaVuSans-54" transform="translate(1111.816406 0)"/>
      <use xlink:href="#DejaVuSans-79" transform="translate(1157.275391 0)"/>
      <use xlink:href="#DejaVuSans-63" transform="translate(1216.455078 0)"/>
      <use xlink:href="#DejaVuSans-68" transform="translate(1271.435547 0)"/>
      <use xlink:href="#DejaVuSans-65" transform="translate(1334.814453 0)"/>
      <use xlink:href="#DejaVuSans-2d" transform="translate(1396.337891 0)"/>
      <use xlink:href="#DejaVuSans-68" transform="translate(1432.421875 0)"/>
      <use xlink:href="#DejaVuSans-73" transform="translate(1495.800781 0)"/>
      <use xlink:href="#DejaVuSans-67" transform="translate(1547.900391 0)"/>
      <use xlink:href="#DejaVuSans-29" transform="translate(1611.376953 0)"/>
     </g>
    </g>
    <g id="line2d_35">
     <path d="M 102.3275 427.406623 
L 118.5275 427.406623 
L 134.7275 427.406623 
" style="fill: none; stroke: #4aade8; stroke-width: 3; stroke-linecap: square"/>
     <g>
      <use xlink:href="#mf780e5277c" x="118.5275" y="427.406623" style="fill: #4aade8"/>
     </g>
    </g>
    <g id="text_16">
     <!-- GB300 NVL72 (CoreWeave) -->
     <g transform="translate(149.1275 433.706623) scale(0.18 -0.18)">
      <defs>
       <path id="DejaVuSans-43" d="M 4122 4306 
L 4122 3641 
Q 3803 3938 3442 4084 
Q 3081 4231 2675 4231 
Q 1875 4231 1450 3742 
Q 1025 3253 1025 2328 
Q 1025 1406 1450 917 
Q 1875 428 2675 428 
Q 3081 428 3442 575 
Q 3803 722 4122 1019 
L 4122 359 
Q 3791 134 3420 21 
Q 3050 -91 2638 -91 
Q 1578 -91 968 557 
Q 359 1206 359 2328 
Q 359 3453 968 4101 
Q 1578 4750 2638 4750 
Q 3056 4750 3426 4639 
Q 3797 4528 4122 4306 
z
" transform="scale(0.015625)"/>
       <path id="DejaVuSans-57" d="M 213 4666 
L 850 4666 
L 1831 722 
L 2809 4666 
L 3519 4666 
L 4500 722 
L 5478 4666 
L 6119 4666 
L 4947 0 
L 4153 0 
L 3169 4050 
L 2175 0 
L 1381 0 
L 213 4666 
z
" transform="scale(0.015625)"/>
      </defs>
      <use xlink:href="#DejaVuSans-47"/>
      <use xlink:href="#DejaVuSans-42" transform="translate(77.490234 0)"/>
      <use xlink:href="#DejaVuSans-33" transform="translate(146.09375 0)"/>
      <use xlink:href="#DejaVuSans-30" transform="translate(209.716797 0)"/>
      <use xlink:href="#DejaVuSans-30" transform="translate(273.339844 0)"/>
      <use xlink:href="#DejaVuSans-20" transform="translate(336.962891 0)"/>
      <use xlink:href="#DejaVuSans-4e" transform="translate(368.75 0)"/>
      <use xlink:href="#DejaVuSans-56" transform="translate(443.554688 0)"/>
      <use xlink:href="#DejaVuSans-4c" transform="translate(511.962891 0)"/>
      <use xlink:href="#DejaVuSans-37" transform="translate(567.675781 0)"/>
      <use xlink:href="#DejaVuSans-32" transform="translate(631.298828 0)"/>
      <use xlink:href="#DejaVuSans-20" transform="translate(694.921875 0)"/>
      <use xlink:href="#DejaVuSans-28" transform="translate(726.708984 0)"/>
      <use xlink:href="#DejaVuSans-43" transform="translate(765.722656 0)"/>
      <use xlink:href="#DejaVuSans-6f" transform="translate(835.546875 0)"/>
      <use xlink:href="#DejaVuSans-72" transform="translate(896.728516 0)"/>
      <use xlink:href="#DejaVuSans-65" transform="translate(935.591797 0)"/>
      <use xlink:href="#DejaVuSans-57" transform="translate(997.115234 0)"/>
      <use xlink:href="#DejaVuSans-65" transform="translate(1090.117188 0)"/>
      <use xlink:href="#DejaVuSans-61" transform="translate(1151.640625 0)"/>
      <use xlink:href="#DejaVuSans-76" transform="translate(1212.919922 0)"/>
      <use xlink:href="#DejaVuSans-65" transform="translate(1272.099609 0)"/>
      <use xlink:href="#DejaVuSans-29" transform="translate(1333.623047 0)"/>
     </g>
    </g>
    <g id="line2d_36">
     <path d="M 102.3275 452.927248 
L 118.5275 452.927248 
L 134.7275 452.927248 
" style="fill: none; stroke: #009e73; stroke-width: 3; stroke-linecap: square"/>
     <g>
      <use xlink:href="#m58ee2be1d5" x="118.5275" y="452.927248" style="fill: #009e73"/>
     </g>
    </g>
    <g id="text_17">
     <!-- GB300 NVL72 (Nvidia Theia) -->
     <g transform="translate(149.1275 459.227248) scale(0.18 -0.18)">
      <use xlink:href="#DejaVuSans-47"/>
      <use xlink:href="#DejaVuSans-42" transform="translate(77.490234 0)"/>
      <use xlink:href="#DejaVuSans-33" transform="translate(146.09375 0)"/>
      <use xlink:href="#DejaVuSans-30" transform="translate(209.716797 0)"/>
      <use xlink:href="#DejaVuSans-30" transform="translate(273.339844 0)"/>
      <use xlink:href="#DejaVuSans-20" transform="translate(336.962891 0)"/>
      <use xlink:href="#DejaVuSans-4e" transform="translate(368.75 0)"/>
      <use xlink:href="#DejaVuSans-56" transform="translate(443.554688 0)"/>
      <use xlink:href="#DejaVuSans-4c" transform="translate(511.962891 0)"/>
      <use xlink:href="#DejaVuSans-37" transform="translate(567.675781 0)"/>
      <use xlink:href="#DejaVuSans-32" transform="translate(631.298828 0)"/>
      <use xlink:href="#DejaVuSans-20" transform="translate(694.921875 0)"/>
      <use xlink:href="#DejaVuSans-28" transform="translate(726.708984 0)"/>
      <use xlink:href="#DejaVuSans-4e" transform="translate(765.722656 0)"/>
      <use xlink:href="#DejaVuSans-76" transform="translate(840.527344 0)"/>
      <use xlink:href="#DejaVuSans-69" transform="translate(899.707031 0)"/>
      <use xlink:href="#DejaVuSans-64" transform="translate(927.490234 0)"/>
      <use xlink:href="#DejaVuSans-69" transform="translate(990.966797 0)"/>
      <use xlink:href="#DejaVuSans-61" transform="translate(1018.75 0)"/>
      <use xlink:href="#DejaVuSans-20" transform="translate(1080.029297 0)"/>
      <use xlink:href="#DejaVuSans-54" transform="translate(1111.816406 0)"/>
      <use xlink:href="#DejaVuSans-68" transform="translate(1172.900391 0)"/>
      <use xlink:href="#DejaVuSans-65" transform="translate(1236.279297 0)"/>
      <use xlink:href="#DejaVuSans-69" transform="translate(1297.802734 0)"/>
      <use xlink:href="#DejaVuSans-61" transform="translate(1325.585938 0)"/>
      <use xlink:href="#DejaVuSans-29" transform="translate(1386.865234 0)"/>
     </g>
    </g>
   </g>
  </g>
  <g id="text_18">
   <!-- DeepSeek-v3 671B MoE -->
   <g transform="translate(303.765379 28.475625) scale(0.28 -0.28)">
    <defs>
     <path id="DejaVuSans-Bold-44" d="M 1791 3756 
L 1791 909 
L 2222 909 
Q 2959 909 3348 1275 
Q 3738 1641 3738 2338 
Q 3738 3031 3350 3393 
Q 2963 3756 2222 3756 
L 1791 3756 
z
M 588 4666 
L 1856 4666 
Q 2919 4666 3439 4514 
Q 3959 4363 4331 4000 
Q 4659 3684 4818 3271 
Q 4978 2859 4978 2338 
Q 4978 1809 4818 1395 
Q 4659 981 4331 666 
Q 3956 303 3431 151 
Q 2906 0 1856 0 
L 588 0 
L 588 4666 
z
" transform="scale(0.015625)"/>
     <path id="DejaVuSans-Bold-65" d="M 4031 1759 
L 4031 1441 
L 1416 1441 
Q 1456 1047 1700 850 
Q 1944 653 2381 653 
Q 2734 653 3104 758 
Q 3475 863 3866 1075 
L 3866 213 
Q 3469 63 3072 -14 
Q 2675 -91 2278 -91 
Q 1328 -91 801 392 
Q 275 875 275 1747 
Q 275 2603 792 3093 
Q 1309 3584 2216 3584 
Q 3041 3584 3536 3087 
Q 4031 2591 4031 1759 
z
M 2881 2131 
Q 2881 2450 2695 2645 
Q 2509 2841 2209 2841 
Q 1884 2841 1681 2658 
Q 1478 2475 1428 2131 
L 2881 2131 
z
" transform="scale(0.015625)"/>
     <path id="DejaVuSans-Bold-70" d="M 1656 506 
L 1656 -1331 
L 538 -1331 
L 538 3500 
L 1656 3500 
L 1656 2988 
Q 1888 3294 2169 3439 
Q 2450 3584 2816 3584 
Q 3463 3584 3878 3070 
Q 4294 2556 4294 1747 
Q 4294 938 3878 423 
Q 3463 -91 2816 -91 
Q 2450 -91 2169 54 
Q 1888 200 1656 506 
z
M 2400 2772 
Q 2041 2772 1848 2508 
Q 1656 2244 1656 1747 
Q 1656 1250 1848 986 
Q 2041 722 2400 722 
Q 2759 722 2948 984 
Q 3138 1247 3138 1747 
Q 3138 2247 2948 2509 
Q 2759 2772 2400 2772 
z
" transform="scale(0.015625)"/>
     <path id="DejaVuSans-Bold-53" d="M 3834 4519 
L 3834 3531 
Q 3450 3703 3084 3790 
Q 2719 3878 2394 3878 
Q 1963 3878 1756 3759 
Q 1550 3641 1550 3391 
Q 1550 3203 1689 3098 
Q 1828 2994 2194 2919 
L 2706 2816 
Q 3484 2659 3812 2340 
Q 4141 2022 4141 1434 
Q 4141 663 3683 286 
Q 3225 -91 2284 -91 
Q 1841 -91 1394 -6 
Q 947 78 500 244 
L 500 1259 
Q 947 1022 1364 901 
Q 1781 781 2169 781 
Q 2563 781 2772 912 
Q 2981 1044 2981 1288 
Q 2981 1506 2839 1625 
Q 2697 1744 2272 1838 
L 1806 1941 
Q 1106 2091 782 2419 
Q 459 2747 459 3303 
Q 459 4000 909 4375 
Q 1359 4750 2203 4750 
Q 2588 4750 2994 4692 
Q 3400 4634 3834 4519 
z
" transform="scale(0.015625)"/>
     <path id="DejaVuSans-Bold-6b" d="M 538 4863 
L 1656 4863 
L 1656 2216 
L 2944 3500 
L 4244 3500 
L 2534 1894 
L 4378 0 
L 3022 0 
L 1656 1459 
L 1656 0 
L 538 0 
L 538 4863 
z
" transform="scale(0.015625)"/>
     <path id="DejaVuSans-Bold-2d" d="M 347 2297 
L 2309 2297 
L 2309 1388 
L 347 1388 
L 347 2297 
z
" transform="scale(0.015625)"/>
     <path id="DejaVuSans-Bold-76" d="M 97 3500 
L 1216 3500 
L 2088 1081 
L 2956 3500 
L 4078 3500 
L 2700 0 
L 1472 0 
L 97 3500 
z
" transform="scale(0.015625)"/>
     <path id="DejaVuSans-Bold-33" d="M 2981 2516 
Q 3453 2394 3698 2092 
Q 3944 1791 3944 1325 
Q 3944 631 3412 270 
Q 2881 -91 1863 -91 
Q 1503 -91 1142 -33 
Q 781 25 428 141 
L 428 1069 
Q 766 900 1098 814 
Q 1431 728 1753 728 
Q 2231 728 2486 893 
Q 2741 1059 2741 1369 
Q 2741 1688 2480 1852 
Q 2219 2016 1709 2016 
L 1228 2016 
L 1228 2791 
L 1734 2791 
Q 2188 2791 2409 2933 
Q 2631 3075 2631 3366 
Q 2631 3634 2415 3781 
Q 2200 3928 1806 3928 
Q 1516 3928 1219 3862 
Q 922 3797 628 3669 
L 628 4550 
Q 984 4650 1334 4700 
Q 1684 4750 2022 4750 
Q 2931 4750 3382 4451 
Q 3834 4153 3834 3553 
Q 3834 3144 3618 2883 
Q 3403 2622 2981 2516 
z
" transform="scale(0.015625)"/>
     <path id="DejaVuSans-Bold-20" transform="scale(0.015625)"/>
     <path id="DejaVuSans-Bold-36" d="M 2316 2303 
Q 2000 2303 1842 2098 
Q 1684 1894 1684 1484 
Q 1684 1075 1842 870 
Q 2000 666 2316 666 
Q 2634 666 2792 870 
Q 2950 1075 2950 1484 
Q 2950 1894 2792 2098 
Q 2634 2303 2316 2303 
z
M 3803 4544 
L 3803 3681 
Q 3506 3822 3243 3889 
Q 2981 3956 2731 3956 
Q 2194 3956 1894 3657 
Q 1594 3359 1544 2772 
Q 1750 2925 1990 3001 
Q 2231 3078 2516 3078 
Q 3231 3078 3670 2659 
Q 4109 2241 4109 1563 
Q 4109 813 3618 361 
Q 3128 -91 2303 -91 
Q 1394 -91 895 523 
Q 397 1138 397 2266 
Q 397 3422 980 4083 
Q 1563 4744 2578 4744 
Q 2900 4744 3203 4694 
Q 3506 4644 3803 4544 
z
" transform="scale(0.015625)"/>
     <path id="DejaVuSans-Bold-37" d="M 428 4666 
L 3944 4666 
L 3944 3988 
L 2125 0 
L 953 0 
L 2675 3781 
L 428 3781 
L 428 4666 
z
" transform="scale(0.015625)"/>
     <path id="DejaVuSans-Bold-31" d="M 750 831 
L 1813 831 
L 1813 3847 
L 722 3622 
L 722 4441 
L 1806 4666 
L 2950 4666 
L 2950 831 
L 4013 831 
L 4013 0 
L 750 0 
L 750 831 
z
" transform="scale(0.015625)"/>
     <path id="DejaVuSans-Bold-42" d="M 2456 2859 
Q 2741 2859 2887 2984 
Q 3034 3109 3034 3353 
Q 3034 3594 2887 3720 
Q 2741 3847 2456 3847 
L 1791 3847 
L 1791 2859 
L 2456 2859 
z
M 2497 819 
Q 2859 819 3042 972 
Q 3225 1125 3225 1434 
Q 3225 1738 3044 1889 
Q 2863 2041 2497 2041 
L 1791 2041 
L 1791 819 
L 2497 819 
z
M 3616 2497 
Q 4003 2384 4215 2081 
Q 4428 1778 4428 1338 
Q 4428 663 3972 331 
Q 3516 0 2584 0 
L 588 0 
L 588 4666 
L 2394 4666 
Q 3366 4666 3802 4372 
Q 4238 4078 4238 3431 
Q 4238 3091 4078 2852 
Q 3919 2613 3616 2497 
z
" transform="scale(0.015625)"/>
     <path id="DejaVuSans-Bold-4d" d="M 588 4666 
L 2119 4666 
L 3181 2169 
L 4250 4666 
L 5778 4666 
L 5778 0 
L 4641 0 
L 4641 3413 
L 3566 897 
L 2803 897 
L 1728 3413 
L 1728 0 
L 588 0 
L 588 4666 
z
" transform="scale(0.015625)"/>
     <path id="DejaVuSans-Bold-6f" d="M 2203 2784 
Q 1831 2784 1636 2517 
Q 1441 2250 1441 1747 
Q 1441 1244 1636 976 
Q 1831 709 2203 709 
Q 2569 709 2762 976 
Q 2956 1244 2956 1747 
Q 2956 2250 2762 2517 
Q 2569 2784 2203 2784 
z
M 2203 3584 
Q 3106 3584 3614 3096 
Q 4122 2609 4122 1747 
Q 4122 884 3614 396 
Q 3106 -91 2203 -91 
Q 1297 -91 786 396 
Q 275 884 275 1747 
Q 275 2609 786 3096 
Q 1297 3584 2203 3584 
z
" transform="scale(0.015625)"/>
     <path id="DejaVuSans-Bold-45" d="M 588 4666 
L 3834 4666 
L 3834 3756 
L 1791 3756 
L 1791 2888 
L 3713 2888 
L 3713 1978 
L 1791 1978 
L 1791 909 
L 3903 909 
L 3903 0 
L 588 0 
L 588 4666 
z
" transform="scale(0.015625)"/>
    </defs>
    <use xlink:href="#DejaVuSans-Bold-44"/>
    <use xlink:href="#DejaVuSans-Bold-65" transform="translate(83.007812 0)"/>
    <use xlink:href="#DejaVuSans-Bold-65" transform="translate(150.830078 0)"/>
    <use xlink:href="#DejaVuSans-Bold-70" transform="translate(218.652344 0)"/>
    <use xlink:href="#DejaVuSans-Bold-53" transform="translate(290.234375 0)"/>
    <use xlink:href="#DejaVuSans-Bold-65" transform="translate(362.255859 0)"/>
    <use xlink:href="#DejaVuSans-Bold-65" transform="translate(430.078125 0)"/>
    <use xlink:href="#DejaVuSans-Bold-6b" transform="translate(497.900391 0)"/>
    <use xlink:href="#DejaVuSans-Bold-2d" transform="translate(564.404297 0)"/>
    <use xlink:href="#DejaVuSans-Bold-76" transform="translate(605.908203 0)"/>
    <use xlink:href="#DejaVuSans-Bold-33" transform="translate(671.09375 0)"/>
    <use xlink:href="#DejaVuSans-Bold-20" transform="translate(740.673828 0)"/>
    <use xlink:href="#DejaVuSans-Bold-36" transform="translate(775.488281 0)"/>
    <use xlink:href="#DejaVuSans-Bold-37" transform="translate(845.068359 0)"/>
    <use xlink:href="#DejaVuSans-Bold-31" transform="translate(914.648438 0)"/>
    <use xlink:href="#DejaVuSans-Bold-42" transform="translate(984.228516 0)"/>
    <use xlink:href="#DejaVuSans-Bold-20" transform="translate(1060.449219 0)"/>
    <use xlink:href="#DejaVuSans-Bold-4d" transform="translate(1095.263672 0)"/>
    <use xlink:href="#DejaVuSans-Bold-6f" transform="translate(1194.775391 0)"/>
    <use xlink:href="#DejaVuSans-Bold-45" transform="translate(1263.476562 0)"/>
   </g>
  </g>
  <g id="text_19">
   <!-- Cluster-Scale Pretraining (MLPerf v6.0) -->
   <g transform="translate(220.279442 56.087625) scale(0.28 -0.28)">
    <defs>
     <path id="DejaVuSans-53" d="M 3425 4513 
L 3425 3897 
Q 3066 4069 2747 4153 
Q 2428 4238 2131 4238 
Q 1616 4238 1336 4038 
Q 1056 3838 1056 3469 
Q 1056 3159 1242 3001 
Q 1428 2844 1947 2747 
L 2328 2669 
Q 3034 2534 3370 2195 
Q 3706 1856 3706 1288 
Q 3706 609 3251 259 
Q 2797 -91 1919 -91 
Q 1588 -91 1214 -16 
Q 841 59 441 206 
L 441 856 
Q 825 641 1194 531 
Q 1563 422 1919 422 
Q 2459 422 2753 634 
Q 3047 847 3047 1241 
Q 3047 1584 2836 1778 
Q 2625 1972 2144 2069 
L 1759 2144 
Q 1053 2284 737 2584 
Q 422 2884 422 3419 
Q 422 4038 858 4394 
Q 1294 4750 2059 4750 
Q 2388 4750 2728 4690 
Q 3069 4631 3425 4513 
z
" transform="scale(0.015625)"/>
     <path id="DejaVuSans-50" d="M 1259 4147 
L 1259 2394 
L 2053 2394 
Q 2494 2394 2734 2622 
Q 2975 2850 2975 3272 
Q 2975 3691 2734 3919 
Q 2494 4147 2053 4147 
L 1259 4147 
z
M 628 4666 
L 2053 4666 
Q 2838 4666 3239 4311 
Q 3641 3956 3641 3272 
Q 3641 2581 3239 2228 
Q 2838 1875 2053 1875 
L 1259 1875 
L 1259 0 
L 628 0 
L 628 4666 
z
" transform="scale(0.015625)"/>
     <path id="DejaVuSans-4d" d="M 628 4666 
L 1569 4666 
L 2759 1491 
L 3956 4666 
L 4897 4666 
L 4897 0 
L 4281 0 
L 4281 4097 
L 3078 897 
L 2444 897 
L 1241 4097 
L 1241 0 
L 628 0 
L 628 4666 
z
" transform="scale(0.015625)"/>
     <path id="DejaVuSans-66" d="M 2375 4863 
L 2375 4384 
L 1825 4384 
Q 1516 4384 1395 4259 
Q 1275 4134 1275 3809 
L 1275 3500 
L 2222 3500 
L 2222 3053 
L 1275 3053 
L 1275 0 
L 697 0 
L 697 3053 
L 147 3053 
L 147 3500 
L 697 3500 
L 697 3744 
Q 697 4328 969 4595 
Q 1241 4863 1831 4863 
L 2375 4863 
z
" transform="scale(0.015625)"/>
     <path id="DejaVuSans-2e" d="M 684 794 
L 1344 794 
L 1344 0 
L 684 0 
L 684 794 
z
" transform="scale(0.015625)"/>
    </defs>
    <use xlink:href="#DejaVuSans-43"/>
    <use xlink:href="#DejaVuSans-6c" transform="translate(69.824219 0)"/>
    <use xlink:href="#DejaVuSans-75" transform="translate(97.607422 0)"/>
    <use xlink:href="#DejaVuSans-73" transform="translate(160.986328 0)"/>
    <use xlink:href="#DejaVuSans-74" transform="translate(213.085938 0)"/>
    <use xlink:href="#DejaVuSans-65" transform="translate(252.294922 0)"/>
    <use xlink:href="#DejaVuSans-72" transform="translate(313.818359 0)"/>
    <use xlink:href="#DejaVuSans-2d" transform="translate(348.556641 0)"/>
    <use xlink:href="#DejaVuSans-53" transform="translate(384.640625 0)"/>
    <use xlink:href="#DejaVuSans-63" transform="translate(448.117188 0)"/>
    <use xlink:href="#DejaVuSans-61" transform="translate(503.097656 0)"/>
    <use xlink:href="#DejaVuSans-6c" transform="translate(564.376953 0)"/>
    <use xlink:href="#DejaVuSans-65" transform="translate(592.160156 0)"/>
    <use xlink:href="#DejaVuSans-20" transform="translate(653.683594 0)"/>
    <use xlink:href="#DejaVuSans-50" transform="translate(685.470703 0)"/>
    <use xlink:href="#DejaVuSans-72" transform="translate(744.023438 0)"/>
    <use xlink:href="#DejaVuSans-65" transform="translate(782.886719 0)"/>
    <use xlink:href="#DejaVuSans-74" transform="translate(844.410156 0)"/>
    <use xlink:href="#DejaVuSans-72" transform="translate(883.619141 0)"/>
    <use xlink:href="#DejaVuSans-61" transform="translate(924.732422 0)"/>
    <use xlink:href="#DejaVuSans-69" transform="translate(986.011719 0)"/>
    <use xlink:href="#DejaVuSans-6e" transform="translate(1013.794922 0)"/>
    <use xlink:href="#DejaVuSans-69" transform="translate(1077.173828 0)"/>
    <use xlink:href="#DejaVuSans-6e" transform="translate(1104.957031 0)"/>
    <use xlink:href="#DejaVuSans-67" transform="translate(1168.335938 0)"/>
    <use xlink:href="#DejaVuSans-20" transform="translate(1231.8125 0)"/>
    <use xlink:href="#DejaVuSans-28" transform="translate(1263.599609 0)"/>
    <use xlink:href="#DejaVuSans-4d" transform="translate(1302.613281 0)"/>
    <use xlink:href="#DejaVuSans-4c" transform="translate(1388.892578 0)"/>
    <use xlink:href="#DejaVuSans-50" transform="translate(1444.605469 0)"/>
    <use xlink:href="#DejaVuSans-65" transform="translate(1501.283203 0)"/>
    <use xlink:href="#DejaVuSans-72" transform="translate(1562.806641 0)"/>
    <use xlink:href="#DejaVuSans-66" transform="translate(1603.919922 0)"/>
    <use xlink:href="#DejaVuSans-20" transform="translate(1639.125 0)"/>
    <use xlink:href="#DejaVuSans-76" transform="translate(1670.912109 0)"/>
    <use xlink:href="#DejaVuSans-36" transform="translate(1730.091797 0)"/>
    <use xlink:href="#DejaVuSans-2e" transform="translate(1793.714844 0)"/>
    <use xlink:href="#DejaVuSans-30" transform="translate(1825.501953 0)"/>
    <use xlink:href="#DejaVuSans-29" transform="translate(1889.125 0)"/>
   </g>
  </g>
 </g>
 <defs>
  <clipPath id="pe535b38307">
   <rect x="86.1275" y="75.9852" width="886.129442" height="403.185486"/>
  </clipPath>
 </defs>
</svg>
